<?xml version="1.0" encoding="utf-8"?>
<!-- Generator: Adobe Illustrator 16.0.0, SVG Export Plug-In . SVG Version: 6.00 Build 0)  -->
<!DOCTYPE svg PUBLIC "-//W3C//DTD SVG 1.1//EN" "http://www.w3.org/Graphics/SVG/1.1/DTD/svg11.dtd">
<svg version="1.1" id="レイヤー_1" xmlns="http://www.w3.org/2000/svg" xmlns:xlink="http://www.w3.org/1999/xlink" x="0px"
	 y="0px" width="284.054px" height="92.54px" viewBox="0 0 284.054 92.54" enable-background="new 0 0 284.054 92.54"
	 xml:space="preserve">
<g>
	<path fill="#00A0E9" d="M34.02,92.4C8.4,92.4,0,67.76,0,46.2C0,25.62,10.08,0,34.3,0c7.42,0,16.38,1.96,22.68,6.02l-4.06,7.28
		c-5.88-3.22-11.9-4.48-18.62-4.48c-16.66,0-23.1,24.78-23.1,37.939c0,14.84,4.76,36.54,23.38,36.54c6.3,0,14-1.96,19.04-5.74
		l4.76,7C52.08,89.6,42,92.4,34.02,92.4z"/>
	<path fill="#00A0E9" d="M110.319,57.26h-24.78V90.3h-11.06V18.34h11.06v29.82h24.78V18.34h11.06V90.3h-11.06V57.26z"/>
	<path fill="#00A0E9" d="M146.438,18.34h11.48V90.3h-11.48V18.34z"/>
	<path fill="#00A0E9" d="M203.136,65.1c-4.06,0-8.54-2.1-9.1-2.38V90.3h-11.06V18.34h16.66c20.72,0,28.14,10.92,28.14,22.4
		c0,7.42-2.66,14.14-7.84,18.62C215.736,63,209.996,65.1,203.136,65.1z M194.036,27.02v27.16c0,0,4.34,2.1,7.7,2.1
		c9.52,0,14.98-6.86,14.98-15.68c0-7.84-5.46-13.58-17.08-13.58H194.036z"/>
	<path fill="#00A0E9" d="M242.894,85.26l4.9-7.7c0.979,0.7,2.8,1.96,5.18,3.36c2.66,1.4,5.74,2.8,8.68,2.8
		c6.58,0,11.76-4.34,11.76-11.34c0-3.92-3.079-7.98-7.279-10.64l-13.3-7.98c-5.88-3.64-11.061-9.8-11.061-18.479
		c0-12.32,8.54-19.18,21.28-19.18c10.78,0,16.939,7.28,18.34,9.24l-6.58,5.32c-1.26-1.4-5.6-5.88-11.76-5.88
		c-5.88,0-10.5,3.22-10.5,9.24c0,5.32,3.5,9.24,7.84,11.76l12.04,7.42c7.56,4.48,11.62,10.78,11.62,19.32
		c0,12.18-10.08,20.02-22.54,20.02C253.114,92.54,244.854,86.66,242.894,85.26z"/>
</g>
</svg>
